<?xml version="1.0" standalone="no"?>
<!DOCTYPE svg PUBLIC "-//W3C//DTD SVG 20010904//EN"
 "http://www.w3.org/TR/2001/REC-SVG-20010904/DTD/svg10.dtd">
<svg version="1.0" xmlns="http://www.w3.org/2000/svg"
 width="1000.000000pt" height="1000.000000pt" viewBox="0 0 1000.000000 1000.000000"
 preserveAspectRatio="xMidYMid meet">
<metadata>
Created by potrace 1.14, written by Peter Selinger 2001-2017
</metadata>
<g transform="translate(0.000000,1000.000000) scale(0.100000,-0.100000)"
fill="#000000" stroke="none">
<path d="M5424 9355 c-73 -38 -266 -99 -346 -109 -26 -4 -53 -9 -60 -11 -7 -2
-67 -11 -133 -19 -110 -14 -146 -18 -275 -31 -125 -13 -163 -17 -260 -31 -287
-41 -501 -119 -720 -265 -337 -223 -532 -486 -639 -859 -42 -148 -56 -224 -87
-475 -4 -27 -7 -194 -9 -370 -3 -332 7 -472 37 -533 l16 -31 -62 -29 c-91 -43
-149 -100 -193 -190 l-38 -76 -3 -319 c-3 -271 -1 -327 13 -375 40 -137 153
-249 288 -282 49 -13 48 -11 63 -125 6 -51 43 -201 71 -290 61 -196 225 -485
363 -640 153 -172 374 -350 544 -436 l86 -44 0 -312 0 -313 -120 0 c-103 0
-120 2 -120 16 0 14 -9 15 -57 10 -83 -8 -115 -15 -140 -32 -12 -8 -39 -17
-60 -20 -396 -60 -788 -224 -1107 -463 -319 -239 -569 -542 -741 -896 -185
-381 -249 -687 -243 -1150 l3 -230 3408 0 3407 0 0 211 c0 116 -5 260 -11 320
-106 1105 -913 1988 -2004 2194 -60 11 -125 27 -143 36 -39 18 -58 23 -134 31
-49 5 -58 3 -58 -11 0 -14 -16 -16 -120 -16 l-120 0 0 313 0 313 38 18 c338
159 675 500 859 871 72 143 148 383 168 525 3 25 8 54 10 65 2 11 4 25 4 32 1
6 23 16 51 23 107 26 219 124 269 237 26 58 26 60 29 363 4 379 -1 408 -88
525 -43 58 -96 97 -174 129 -31 13 -54 25 -52 27 3 3 6 50 7 105 1 56 5 125
10 155 20 126 24 184 23 369 -2 599 -75 941 -261 1223 -65 98 -167 196 -373
357 -204 160 -199 152 -155 261 42 105 42 134 0 157 -17 8 -39 3 -115 -28 -52
-21 -119 -45 -148 -54 -51 -15 -54 -14 -47 2 33 76 39 103 29 120 -20 30 -72
17 -198 -48 l-119 -62 23 39 c59 97 69 130 48 151 -21 21 -62 13 -134 -23z"/>
</g>
</svg>
